<svg version="1.1" xmlns="http://www.w3.org/2000/svg" viewBox="-2562.6499999999996 -1716.825 3948.35 2578.6499999999996">
	<desc>Created with Snap</desc>
	<defs></defs>
	<g>
		<g transform="matrix(16.451,0,0,16.451,-2326.1893,-1480.3643)">
			<g display="none">
				<g display="inline">
					<rect fill="none" stroke="#6daedb" stroke-width="0.1" stroke-miterlimit="10" width="128" height="128" style=""></rect>
					<line fill="none" stroke="#6daedb" stroke-width="0.1" stroke-miterlimit="10" x1="0" y1="124" x2="128" y2="124" style=""></line>
					<line fill="none" stroke="#6daedb" stroke-width="0.1" stroke-miterlimit="10" x1="0" y1="120" x2="128" y2="120" style=""></line>
					<line fill="none" stroke="#6daedb" stroke-width="0.1" stroke-miterlimit="10" x1="0" y1="116" x2="128" y2="116" style=""></line>
					<line fill="none" stroke="#6daedb" stroke-width="0.1" stroke-miterlimit="10" x1="0" y1="112" x2="128" y2="112" style=""></line>
					<line fill="none" stroke="#6daedb" stroke-width="0.1" stroke-miterlimit="10" x1="0" y1="108" x2="128" y2="108" style=""></line>
					<line fill="none" stroke="#6daedb" stroke-width="0.1" stroke-miterlimit="10" x1="0" y1="104" x2="128" y2="104" style=""></line>
					<line fill="none" stroke="#6daedb" stroke-width="0.1" stroke-miterlimit="10" x1="0" y1="100" x2="128" y2="100" style=""></line>
					<line fill="none" stroke="#6daedb" stroke-width="0.1" stroke-miterlimit="10" x1="0" y1="96" x2="128" y2="96" style=""></line>
					<line fill="none" stroke="#6daedb" stroke-width="0.1" stroke-miterlimit="10" x1="0" y1="92" x2="128" y2="92" style=""></line>
					<line fill="none" stroke="#6daedb" stroke-width="0.1" stroke-miterlimit="10" x1="0" y1="88" x2="128" y2="88" style=""></line>
					<line fill="none" stroke="#6daedb" stroke-width="0.1" stroke-miterlimit="10" x1="0" y1="84" x2="128" y2="84" style=""></line>
					<line fill="none" stroke="#6daedb" stroke-width="0.1" stroke-miterlimit="10" x1="0" y1="80" x2="128" y2="80" style=""></line>
					<line fill="none" stroke="#6daedb" stroke-width="0.1" stroke-miterlimit="10" x1="0" y1="76" x2="128" y2="76" style=""></line>
					<line fill="none" stroke="#6daedb" stroke-width="0.1" stroke-miterlimit="10" x1="0" y1="72" x2="128" y2="72" style=""></line>
					<line fill="none" stroke="#6daedb" stroke-width="0.1" stroke-miterlimit="10" x1="0" y1="68" x2="128" y2="68" style=""></line>
					<line fill="none" stroke="#6daedb" stroke-width="0.1" stroke-miterlimit="10" x1="0" y1="64" x2="128" y2="64" style=""></line>
					<line fill="none" stroke="#6daedb" stroke-width="0.1" stroke-miterlimit="10" x1="0" y1="60" x2="128" y2="60" style=""></line>
					<line fill="none" stroke="#6daedb" stroke-width="0.1" stroke-miterlimit="10" x1="0" y1="56" x2="128" y2="56" style=""></line>
					<line fill="none" stroke="#6daedb" stroke-width="0.1" stroke-miterlimit="10" x1="0" y1="52" x2="128" y2="52" style=""></line>
					<line fill="none" stroke="#6daedb" stroke-width="0.1" stroke-miterlimit="10" x1="0" y1="48" x2="128" y2="48" style=""></line>
					<line fill="none" stroke="#6daedb" stroke-width="0.1" stroke-miterlimit="10" x1="0" y1="44" x2="128" y2="44" style=""></line>
					<line fill="none" stroke="#6daedb" stroke-width="0.1" stroke-miterlimit="10" x1="0" y1="40" x2="128" y2="40" style=""></line>
					<line fill="none" stroke="#6daedb" stroke-width="0.1" stroke-miterlimit="10" x1="0" y1="36" x2="128" y2="36" style=""></line>
					<line fill="none" stroke="#6daedb" stroke-width="0.1" stroke-miterlimit="10" x1="0" y1="32" x2="128" y2="32" style=""></line>
					<line fill="none" stroke="#6daedb" stroke-width="0.1" stroke-miterlimit="10" x1="0" y1="28" x2="128" y2="28" style=""></line>
					<line fill="none" stroke="#6daedb" stroke-width="0.1" stroke-miterlimit="10" x1="0" y1="24" x2="128" y2="24" style=""></line>
					<line fill="none" stroke="#6daedb" stroke-width="0.1" stroke-miterlimit="10" x1="0" y1="20" x2="128" y2="20" style=""></line>
					<line fill="none" stroke="#6daedb" stroke-width="0.1" stroke-miterlimit="10" x1="0" y1="16" x2="128" y2="16" style=""></line>
					<line fill="none" stroke="#6daedb" stroke-width="0.1" stroke-miterlimit="10" x1="0" y1="12" x2="128" y2="12" style=""></line>
					<line fill="none" stroke="#6daedb" stroke-width="0.1" stroke-miterlimit="10" x1="0" y1="8" x2="128" y2="8" style=""></line>
					<line fill="none" stroke="#6daedb" stroke-width="0.1" stroke-miterlimit="10" x1="0" y1="4" x2="128" y2="4" style=""></line>
					<line fill="none" stroke="#6daedb" stroke-width="0.1" stroke-miterlimit="10" x1="124" y1="0" x2="124" y2="128" style=""></line>
					<line fill="none" stroke="#6daedb" stroke-width="0.1" stroke-miterlimit="10" x1="120" y1="0" x2="120" y2="128" style=""></line>
					<line fill="none" stroke="#6daedb" stroke-width="0.1" stroke-miterlimit="10" x1="116" y1="0" x2="116" y2="128" style=""></line>
					<line fill="none" stroke="#6daedb" stroke-width="0.1" stroke-miterlimit="10" x1="112" y1="0" x2="112" y2="128" style=""></line>
					<line fill="none" stroke="#6daedb" stroke-width="0.1" stroke-miterlimit="10" x1="108" y1="0" x2="108" y2="128" style=""></line>
					<line fill="none" stroke="#6daedb" stroke-width="0.1" stroke-miterlimit="10" x1="104" y1="0" x2="104" y2="128" style=""></line>
					<line fill="none" stroke="#6daedb" stroke-width="0.1" stroke-miterlimit="10" x1="100" y1="0" x2="100" y2="128" style=""></line>
					<line fill="none" stroke="#6daedb" stroke-width="0.1" stroke-miterlimit="10" x1="96" y1="0" x2="96" y2="128" style=""></line>
					<line fill="none" stroke="#6daedb" stroke-width="0.1" stroke-miterlimit="10" x1="92" y1="0" x2="92" y2="128" style=""></line>
					<line fill="none" stroke="#6daedb" stroke-width="0.1" stroke-miterlimit="10" x1="88" y1="0" x2="88" y2="128" style=""></line>
					<line fill="none" stroke="#6daedb" stroke-width="0.1" stroke-miterlimit="10" x1="84" y1="0" x2="84" y2="128" style=""></line>
					<line fill="none" stroke="#6daedb" stroke-width="0.1" stroke-miterlimit="10" x1="80" y1="0" x2="80" y2="128" style=""></line>
					<line fill="none" stroke="#6daedb" stroke-width="0.1" stroke-miterlimit="10" x1="76" y1="0" x2="76" y2="128" style=""></line>
					<line fill="none" stroke="#6daedb" stroke-width="0.1" stroke-miterlimit="10" x1="72" y1="0" x2="72" y2="128" style=""></line>
					<line fill="none" stroke="#6daedb" stroke-width="0.1" stroke-miterlimit="10" x1="68" y1="0" x2="68" y2="128" style=""></line>
					<line fill="none" stroke="#6daedb" stroke-width="0.1" stroke-miterlimit="10" x1="64" y1="0" x2="64" y2="128" style=""></line>
					<line fill="none" stroke="#6daedb" stroke-width="0.1" stroke-miterlimit="10" x1="60" y1="0" x2="60" y2="128" style=""></line>
					<line fill="none" stroke="#6daedb" stroke-width="0.1" stroke-miterlimit="10" x1="56" y1="0" x2="56" y2="128" style=""></line>
					<line fill="none" stroke="#6daedb" stroke-width="0.1" stroke-miterlimit="10" x1="52" y1="0" x2="52" y2="128" style=""></line>
					<line fill="none" stroke="#6daedb" stroke-width="0.1" stroke-miterlimit="10" x1="48" y1="0" x2="48" y2="128" style=""></line>
					<line fill="none" stroke="#6daedb" stroke-width="0.1" stroke-miterlimit="10" x1="44" y1="0" x2="44" y2="128" style=""></line>
					<line fill="none" stroke="#6daedb" stroke-width="0.1" stroke-miterlimit="10" x1="40" y1="0" x2="40" y2="128" style=""></line>
					<line fill="none" stroke="#6daedb" stroke-width="0.1" stroke-miterlimit="10" x1="36" y1="0" x2="36" y2="128" style=""></line>
					<line fill="none" stroke="#6daedb" stroke-width="0.1" stroke-miterlimit="10" x1="32" y1="0" x2="32" y2="128" style=""></line>
					<line fill="none" stroke="#6daedb" stroke-width="0.1" stroke-miterlimit="10" x1="28" y1="0" x2="28" y2="128" style=""></line>
					<line fill="none" stroke="#6daedb" stroke-width="0.1" stroke-miterlimit="10" x1="24" y1="0" x2="24" y2="128" style=""></line>
					<line fill="none" stroke="#6daedb" stroke-width="0.1" stroke-miterlimit="10" x1="20" y1="0" x2="20" y2="128" style=""></line>
					<line fill="none" stroke="#6daedb" stroke-width="0.1" stroke-miterlimit="10" x1="16" y1="0" x2="16" y2="128" style=""></line>
					<line fill="none" stroke="#6daedb" stroke-width="0.1" stroke-miterlimit="10" x1="12" y1="0" x2="12" y2="128" style=""></line>
					<line fill="none" stroke="#6daedb" stroke-width="0.1" stroke-miterlimit="10" x1="8" y1="0" x2="8" y2="128" style=""></line>
					<line fill="none" stroke="#6daedb" stroke-width="0.1" stroke-miterlimit="10" x1="4" y1="0" x2="4" y2="128" style=""></line>
				</g>
			</g>
			<g>
				<g>
					<path d="M64,45.3c11.3,0,20.5-9.2,20.5-20.5S75.3,4.3,64,4.3s-20.5,9.2-20.5,20.5S52.7,45.3,64,45.3z M64,9.3
			c8.5,0,15.5,6.9,15.5,15.5c0,8.5-6.9,15.5-15.5,15.5s-15.5-6.9-15.5-15.5C48.5,16.3,55.5,9.3,64,9.3z" fill="#6daedb" style=""></path>
					<path d="M24.8,123.7c11.3,0,20.5-9.2,20.5-20.5s-9.2-20.5-20.5-20.5S4.3,91.9,4.3,103.2S13.5,123.7,24.8,123.7z M24.8,87.7
			c8.5,0,15.5,6.9,15.5,15.5c0,8.5-6.9,15.5-15.5,15.5s-15.5-6.9-15.5-15.5C9.3,94.7,16.3,87.7,24.8,87.7z" fill="#6daedb" style=""></path>
					<path d="M103.2,123.7c11.3,0,20.5-9.2,20.5-20.5s-9.2-20.5-20.5-20.5s-20.5,9.2-20.5,20.5S91.9,123.7,103.2,123.7z M103.2,87.7
			c8.5,0,15.5,6.9,15.5,15.5c0,8.5-6.9,15.5-15.5,15.5s-15.5-6.9-15.5-15.5C87.7,94.7,94.7,87.7,103.2,87.7z" fill="#6daedb" style=""></path>
				</g>
			</g>
			<desc>Created with Snap</desc>
			<defs></defs>
		</g>
	</g>
</svg>