<svg version="1.1" xmlns="http://www.w3.org/2000/svg" viewBox="-2562.6499999999996 -1716.825 3948.35 2578.6499999999996"><desc>Created with Snap</desc><defs></defs><g><g transform="matrix(16.451,0,0,16.451,-2326.1893,-1480.3643)">
<g display="none">
	<g display="inline">
		<rect fill="none" stroke="#6daedb" stroke-width="0.1" stroke-miterlimit="10" width="128" height="128" style=""></rect>
		<line fill="none" stroke="#6daedb" stroke-width="0.1" stroke-miterlimit="10" x1="0" y1="124" x2="128" y2="124" style=""></line>
		<line fill="none" stroke="#6daedb" stroke-width="0.1" stroke-miterlimit="10" x1="0" y1="120" x2="128" y2="120" style=""></line>
		<line fill="none" stroke="#6daedb" stroke-width="0.1" stroke-miterlimit="10" x1="0" y1="116" x2="128" y2="116" style=""></line>
		<line fill="none" stroke="#6daedb" stroke-width="0.1" stroke-miterlimit="10" x1="0" y1="112" x2="128" y2="112" style=""></line>
		<line fill="none" stroke="#6daedb" stroke-width="0.1" stroke-miterlimit="10" x1="0" y1="108" x2="128" y2="108" style=""></line>
		<line fill="none" stroke="#6daedb" stroke-width="0.1" stroke-miterlimit="10" x1="0" y1="104" x2="128" y2="104" style=""></line>
		<line fill="none" stroke="#6daedb" stroke-width="0.1" stroke-miterlimit="10" x1="0" y1="100" x2="128" y2="100" style=""></line>
		<line fill="none" stroke="#6daedb" stroke-width="0.1" stroke-miterlimit="10" x1="0" y1="96" x2="128" y2="96" style=""></line>
		<line fill="none" stroke="#6daedb" stroke-width="0.1" stroke-miterlimit="10" x1="0" y1="92" x2="128" y2="92" style=""></line>
		<line fill="none" stroke="#6daedb" stroke-width="0.1" stroke-miterlimit="10" x1="0" y1="88" x2="128" y2="88" style=""></line>
		<line fill="none" stroke="#6daedb" stroke-width="0.1" stroke-miterlimit="10" x1="0" y1="84" x2="128" y2="84" style=""></line>
		<line fill="none" stroke="#6daedb" stroke-width="0.1" stroke-miterlimit="10" x1="0" y1="80" x2="128" y2="80" style=""></line>
		<line fill="none" stroke="#6daedb" stroke-width="0.1" stroke-miterlimit="10" x1="0" y1="76" x2="128" y2="76" style=""></line>
		<line fill="none" stroke="#6daedb" stroke-width="0.1" stroke-miterlimit="10" x1="0" y1="72" x2="128" y2="72" style=""></line>
		<line fill="none" stroke="#6daedb" stroke-width="0.1" stroke-miterlimit="10" x1="0" y1="68" x2="128" y2="68" style=""></line>
		<line fill="none" stroke="#6daedb" stroke-width="0.1" stroke-miterlimit="10" x1="0" y1="64" x2="128" y2="64" style=""></line>
		<line fill="none" stroke="#6daedb" stroke-width="0.1" stroke-miterlimit="10" x1="0" y1="60" x2="128" y2="60" style=""></line>
		<line fill="none" stroke="#6daedb" stroke-width="0.1" stroke-miterlimit="10" x1="0" y1="56" x2="128" y2="56" style=""></line>
		<line fill="none" stroke="#6daedb" stroke-width="0.1" stroke-miterlimit="10" x1="0" y1="52" x2="128" y2="52" style=""></line>
		<line fill="none" stroke="#6daedb" stroke-width="0.1" stroke-miterlimit="10" x1="0" y1="48" x2="128" y2="48" style=""></line>
		<line fill="none" stroke="#6daedb" stroke-width="0.1" stroke-miterlimit="10" x1="0" y1="44" x2="128" y2="44" style=""></line>
		<line fill="none" stroke="#6daedb" stroke-width="0.1" stroke-miterlimit="10" x1="0" y1="40" x2="128" y2="40" style=""></line>
		<line fill="none" stroke="#6daedb" stroke-width="0.1" stroke-miterlimit="10" x1="0" y1="36" x2="128" y2="36" style=""></line>
		<line fill="none" stroke="#6daedb" stroke-width="0.1" stroke-miterlimit="10" x1="0" y1="32" x2="128" y2="32" style=""></line>
		<line fill="none" stroke="#6daedb" stroke-width="0.1" stroke-miterlimit="10" x1="0" y1="28" x2="128" y2="28" style=""></line>
		<line fill="none" stroke="#6daedb" stroke-width="0.1" stroke-miterlimit="10" x1="0" y1="24" x2="128" y2="24" style=""></line>
		<line fill="none" stroke="#6daedb" stroke-width="0.1" stroke-miterlimit="10" x1="0" y1="20" x2="128" y2="20" style=""></line>
		<line fill="none" stroke="#6daedb" stroke-width="0.1" stroke-miterlimit="10" x1="0" y1="16" x2="128" y2="16" style=""></line>
		<line fill="none" stroke="#6daedb" stroke-width="0.1" stroke-miterlimit="10" x1="0" y1="12" x2="128" y2="12" style=""></line>
		<line fill="none" stroke="#6daedb" stroke-width="0.1" stroke-miterlimit="10" x1="0" y1="8" x2="128" y2="8" style=""></line>
		<line fill="none" stroke="#6daedb" stroke-width="0.1" stroke-miterlimit="10" x1="0" y1="4" x2="128" y2="4" style=""></line>
		<line fill="none" stroke="#6daedb" stroke-width="0.1" stroke-miterlimit="10" x1="124" y1="0" x2="124" y2="128" style=""></line>
		<line fill="none" stroke="#6daedb" stroke-width="0.1" stroke-miterlimit="10" x1="120" y1="0" x2="120" y2="128" style=""></line>
		<line fill="none" stroke="#6daedb" stroke-width="0.1" stroke-miterlimit="10" x1="116" y1="0" x2="116" y2="128" style=""></line>
		<line fill="none" stroke="#6daedb" stroke-width="0.1" stroke-miterlimit="10" x1="112" y1="0" x2="112" y2="128" style=""></line>
		<line fill="none" stroke="#6daedb" stroke-width="0.1" stroke-miterlimit="10" x1="108" y1="0" x2="108" y2="128" style=""></line>
		<line fill="none" stroke="#6daedb" stroke-width="0.1" stroke-miterlimit="10" x1="104" y1="0" x2="104" y2="128" style=""></line>
		<line fill="none" stroke="#6daedb" stroke-width="0.1" stroke-miterlimit="10" x1="100" y1="0" x2="100" y2="128" style=""></line>
		<line fill="none" stroke="#6daedb" stroke-width="0.1" stroke-miterlimit="10" x1="96" y1="0" x2="96" y2="128" style=""></line>
		<line fill="none" stroke="#6daedb" stroke-width="0.1" stroke-miterlimit="10" x1="92" y1="0" x2="92" y2="128" style=""></line>
		<line fill="none" stroke="#6daedb" stroke-width="0.1" stroke-miterlimit="10" x1="88" y1="0" x2="88" y2="128" style=""></line>
		<line fill="none" stroke="#6daedb" stroke-width="0.1" stroke-miterlimit="10" x1="84" y1="0" x2="84" y2="128" style=""></line>
		<line fill="none" stroke="#6daedb" stroke-width="0.1" stroke-miterlimit="10" x1="80" y1="0" x2="80" y2="128" style=""></line>
		<line fill="none" stroke="#6daedb" stroke-width="0.1" stroke-miterlimit="10" x1="76" y1="0" x2="76" y2="128" style=""></line>
		<line fill="none" stroke="#6daedb" stroke-width="0.1" stroke-miterlimit="10" x1="72" y1="0" x2="72" y2="128" style=""></line>
		<line fill="none" stroke="#6daedb" stroke-width="0.1" stroke-miterlimit="10" x1="68" y1="0" x2="68" y2="128" style=""></line>
		<line fill="none" stroke="#6daedb" stroke-width="0.1" stroke-miterlimit="10" x1="64" y1="0" x2="64" y2="128" style=""></line>
		<line fill="none" stroke="#6daedb" stroke-width="0.1" stroke-miterlimit="10" x1="60" y1="0" x2="60" y2="128" style=""></line>
		<line fill="none" stroke="#6daedb" stroke-width="0.1" stroke-miterlimit="10" x1="56" y1="0" x2="56" y2="128" style=""></line>
		<line fill="none" stroke="#6daedb" stroke-width="0.1" stroke-miterlimit="10" x1="52" y1="0" x2="52" y2="128" style=""></line>
		<line fill="none" stroke="#6daedb" stroke-width="0.1" stroke-miterlimit="10" x1="48" y1="0" x2="48" y2="128" style=""></line>
		<line fill="none" stroke="#6daedb" stroke-width="0.1" stroke-miterlimit="10" x1="44" y1="0" x2="44" y2="128" style=""></line>
		<line fill="none" stroke="#6daedb" stroke-width="0.1" stroke-miterlimit="10" x1="40" y1="0" x2="40" y2="128" style=""></line>
		<line fill="none" stroke="#6daedb" stroke-width="0.1" stroke-miterlimit="10" x1="36" y1="0" x2="36" y2="128" style=""></line>
		<line fill="none" stroke="#6daedb" stroke-width="0.1" stroke-miterlimit="10" x1="32" y1="0" x2="32" y2="128" style=""></line>
		<line fill="none" stroke="#6daedb" stroke-width="0.1" stroke-miterlimit="10" x1="28" y1="0" x2="28" y2="128" style=""></line>
		<line fill="none" stroke="#6daedb" stroke-width="0.1" stroke-miterlimit="10" x1="24" y1="0" x2="24" y2="128" style=""></line>
		<line fill="none" stroke="#6daedb" stroke-width="0.1" stroke-miterlimit="10" x1="20" y1="0" x2="20" y2="128" style=""></line>
		<line fill="none" stroke="#6daedb" stroke-width="0.1" stroke-miterlimit="10" x1="16" y1="0" x2="16" y2="128" style=""></line>
		<line fill="none" stroke="#6daedb" stroke-width="0.1" stroke-miterlimit="10" x1="12" y1="0" x2="12" y2="128" style=""></line>
		<line fill="none" stroke="#6daedb" stroke-width="0.1" stroke-miterlimit="10" x1="8" y1="0" x2="8" y2="128" style=""></line>
		<line fill="none" stroke="#6daedb" stroke-width="0.1" stroke-miterlimit="10" x1="4" y1="0" x2="4" y2="128" style=""></line>
	</g>
</g>
<g>
	<g>
		<path d="M64,45.3c11.3,0,20.5-9.2,20.5-20.5S75.3,4.3,64,4.3s-20.5,9.2-20.5,20.5S52.7,45.3,64,45.3z M64,9.3
			c8.5,0,15.5,6.9,15.5,15.5c0,8.5-6.9,15.5-15.5,15.5s-15.5-6.9-15.5-15.5C48.5,16.3,55.5,9.3,64,9.3z" fill="#6daedb" style=""></path>
		<path d="M24.8,123.7c11.3,0,20.5-9.2,20.5-20.5s-9.2-20.5-20.5-20.5S4.3,91.9,4.3,103.2S13.5,123.7,24.8,123.7z M24.8,87.7
			c8.5,0,15.5,6.9,15.5,15.5c0,8.5-6.9,15.5-15.5,15.5s-15.5-6.9-15.5-15.5C9.3,94.7,16.3,87.7,24.8,87.7z" fill="#6daedb" style=""></path>
		<path d="M103.2,123.7c11.3,0,20.5-9.2,20.5-20.5s-9.2-20.5-20.5-20.5s-20.5,9.2-20.5,20.5S91.9,123.7,103.2,123.7z M103.2,87.7
			c8.5,0,15.5,6.9,15.5,15.5c0,8.5-6.9,15.5-15.5,15.5s-15.5-6.9-15.5-15.5C87.7,94.7,94.7,87.7,103.2,87.7z" fill="#6daedb" style=""></path>
	</g>
</g>
<desc>Created with Snap</desc><defs></defs></g><g><g transform="matrix(0.5,0,0,-0.5,0,0)"><path d="M32 1728L416 1728L416 1632L288 1632L288 0L160 0L160 1632L32 1632L32 1728ZM896 1392L896 144Q896 102 880 71Q865 41 839 21Q813 1 780 -9Q747 -18 712 -18Q675 -18 639 -8Q603 3 575 23Q547 44 529 74Q512 105 512 144L512 1392Q512 1430 529 1459Q547 1489 575 1509Q604 1529 640 1539Q676 1550 713 1550Q748 1550 781 1540Q814 1531 839 1511Q865 1492 880 1462Q896 1432 896 1392ZM768 144L768 1392Q768 1426 751 1440Q735 1455 713 1455Q700 1455 687 1450Q674 1446 663 1437Q653 1429 646 1417Q640 1406 640 1392L640 144Q640 130 646 118Q653 106 663 98Q674 90 686 85Q699 81 712 81Q734 81 751 95Q768 110 768 144ZM1517 127L1517 1410Q1517 1429 1499 1434Q1482 1440 1389 1440L1389 96Q1482 96 1499 102Q1517 108 1517 127ZM1645 1407L1645 135Q1645 84 1623 56Q1602 29 1560 16Q1540 10 1511 6Q1482 3 1431 1Q1380 0 1341 0L1261 0L1261 1536Q1302 1536 1343 1535Q1385 1535 1428 1534Q1516 1532 1558 1521Q1601 1509 1623 1482Q1645 1456 1645 1407ZM2157 1392L2157 144Q2157 102 2141 71Q2126 41 2100 21Q2074 1 2041 -9Q2008 -18 1973 -18Q1936 -18 1900 -8Q1864 3 1836 23Q1808 44 1790 74Q1773 105 1773 144L1773 1392Q1773 1430 1790 1459Q1808 1489 1836 1509Q1865 1529 1901 1539Q1937 1550 1974 1550Q2009 1550 2042 1540Q2075 1531 2100 1511Q2126 1492 2141 1462Q2157 1432 2157 1392ZM2029 144L2029 1392Q2029 1426 2012 1440Q1996 1455 1974 1455Q1961 1455 1948 1450Q1935 1446 1924 1437Q1914 1429 1907 1417Q1901 1406 1901 1392L1901 144Q1901 130 1907 118Q1914 106 1924 98Q1935 90 1947 85Q1960 81 1973 81Q1995 81 2012 95Q2029 110 2029 144Z" fill="#6daedb" style=""></path></g></g></g></svg>